<?xml version="1.0" standalone="yes"?>
<svg xmlns="http://www.w3.org/2000/svg" width="400" height="400">
<path style="fill:#010101; stroke:none;" d="M0 0L0 400L400 400L400 0L0 0z"/>
<path style="fill:#2f597e; stroke:none;" d="M194 47L195 48L194 47z"/>
<path style="fill:#98bddb; stroke:none;" d="M64 267L65 267C70.1562 257.703 79.6852 248.271 82.5008 238C87.0604 221.366 83 198.271 83 181C83 168.7 77.3562 142.034 85.4306 132.105C91.4177 124.742 103.877 120.29 112 115.576C131.321 104.362 150.632 93.1313 170 82C177.891 77.4646 189.838 66.9752 199 66.3295C207.92 65.7009 220.525 76.7043 228 81C248.991 93.0636 270.2 104.813 291 117.201C298.338 121.571 310.465 125.723 315.258 133.043C318.254 137.62 317 144.786 317 150L317 189L317 243C317 249.579 318.952 260.004 315.821 265.96C311.436 274.299 295.877 279.738 288 284.397C268.776 295.765 249.366 306.87 230 318C221.642 322.804 211.481 331.434 202 333.458C196.477 334.637 190.504 329.735 186 327.15C174.289 320.427 162.029 310.753 149 307C147.165 310.925 140.451 318.334 142.242 322.79C144.043 327.272 153 330.497 157 332.694C170.451 340.082 185.933 353.664 202 352.959C214.253 352.422 226.738 342.038 237 336.011C259.567 322.757 282.261 309.675 305 296.719C316.133 290.376 329.848 284.934 334.451 272C338.353 261.039 336 246.506 336 235L336 160C336 147.075 338.476 132.272 330.895 121.004C320.923 106.183 294.28 96.7815 279 88L230 59.8503C221.255 54.8304 212.305 48.1559 202 47.1713C188.831 45.9129 176.744 55.6789 166 61.9892C143.748 75.0584 121.169 87.5979 99 100.799C89.5219 106.443 76.6305 111.124 69.7639 120.039C60.6555 131.866 64 149.966 64 164L64 267z"/>
<path style="fill:#2ca0ec; stroke:none;" d="M204 47L205 48L204 47z"/>
<path style="fill:#2f597e; stroke:none;" d="M211 49L212 50L211 49M184 51L185 52L184 51z"/>
<path style="fill:#2ca0ec; stroke:none;" d="M218 53L219 54L218 53z"/>
<path style="fill:#2f597e; stroke:none;" d="M220 54L221 55L220 54M177 55L178 56L177 55M225 57L226 58L225 57M170 59L171 60L170 59M232 61L233 62L232 61M165 62L166 63L165 62z"/>
<path style="fill:#2ca0ec; stroke:none;" d="M237 64L238 65L237 64z"/>
<path style="fill:#2f597e; stroke:none;" d="M239 65L240 66L239 65M158 66L159 67L158 66z"/>
<path style="fill:#2ca0ec; stroke:none;" d="M196 66L197 67L196 66M194 67L195 68L194 67M208 69L209 70L208 69z"/>
<path style="fill:#2f597e; stroke:none;" d="M213 72L214 73L213 72M146 73L147 74L146 73z"/>
<path style="fill:#2ca0ec; stroke:none;" d="M215 73L216 74L215 73z"/>
<path style="fill:#2f597e; stroke:none;" d="M253 73L254 74L253 73M182 74L183 75L182 74M220 76L221 77L220 76M258 76L259 77L258 76M139 77L140 78L139 77M177 77L178 78L177 77z"/>
<path style="fill:#2ca0ec; stroke:none;" d="M134 80L135 81L134 80z"/>
<path style="fill:#2f597e; stroke:none;" d="M227 80L228 81L227 80M265 80L266 81L265 80M170 81L171 82L170 81M127 84L128 85L127 84M234 84L235 85L234 84M272 84L273 85L272 84M163 85L164 86L163 85M120 88L121 89L120 88z"/>
<path style="fill:#2ca0ec; stroke:none;" d="M241 88L242 89L241 88z"/>
<path style="fill:#2f597e; stroke:none;" d="M279 88L280 89L279 88z"/>
<path style="fill:#2ca0ec; stroke:none;" d="M156 89L157 90L156 89z"/>
<path style="fill:#2f597e; stroke:none;" d="M115 91L116 92L115 91M151 92L152 93L151 92M248 92L249 93L248 92M286 92L287 93L286 92z"/>
<path style="fill:#2ca0ec; stroke:none;" d="M110 94L111 95L110 94z"/>
<path style="fill:#2f597e; stroke:none;" d="M108 95L109 96L108 95M253 95L254 96L253 95M291 95L292 96L291 95M144 96L145 97L144 96M293 96L294 97L293 96M260 99L261 100L260 99M298 99L299 100L298 99M96 102L97 103L96 102M265 102L266 103L265 102M94 103L95 104L94 103M132 103L133 104L132 103M267 103L268 104L267 103M305 103L306 104L305 103M89 106L90 107L89 106M125 107L126 108L125 107M274 107L275 108L274 107M312 107L313 108L312 107M118 111L119 112L118 111M281 111L282 112L281 111M113 114L114 115L113 114M286 114L287 115L286 114z"/>
<path style="fill:#2ca0ec; stroke:none;" d="M74 115L75 116L74 115M288 115L289 116L288 115z"/>
<path style="fill:#2f597e; stroke:none;" d="M106 118L107 119L106 118M69 120L70 121L69 120z"/>
<path style="fill:#2ca0ec; stroke:none;" d="M330 120L331 121L330 120M99 122L100 123L99 122z"/>
<path style="fill:#2f597e; stroke:none;" d="M300 122L301 123L300 122M67 123L68 124L67 123z"/>
<path style="fill:#2ca0ec; stroke:none;" d="M332 123L333 124L332 123z"/>
<path style="fill:#2f597e; stroke:none;" d="M94 125L95 126L94 125z"/>
<path style="fill:#2ca0ec; stroke:none;" d="M333 125L334 126L333 125z"/>
<path style="fill:#2f597e; stroke:none;" d="M307 126L308 127L307 126M65 127L66 128L65 127M334 127L335 128L334 127z"/>
<path style="fill:#2ca0ec; stroke:none;" d="M87 129L88 130L87 129z"/>
<path style="fill:#2f597e; stroke:none;" d="M64 130L65 131L64 130M335 130L336 131L335 130M166 136L167 137L166 136z"/>
<path style="fill:#98bddb; stroke:none;" d="M167 136L168 137L167 136z"/>
<path style="fill:#fdfefe; stroke:none;" d="M94 296L164.808 182L192 137C177.694 135.192 160.756 134.58 148 142.468C138.462 148.366 133.279 159.862 127.343 169C114.818 188.282 102.561 207.741 90 227C82.2714 238.85 60.1255 261.806 64.3179 276.895C66.4399 284.533 87.0956 292.776 94 296z"/>
<path style="fill:#98bddb; stroke:none;" d="M188 136L188 137L192 137L188 136z"/>
<path style="fill:#2f597e; stroke:none;" d="M192.333 136.667L192.667 137.333L192.333 136.667M215 136L215 137L250 137L215 136M160 137L161 138L160 137z"/>
<path style="fill:#fdfefe; stroke:none;" d="M105 303L141 323L172.989 268L250 137L218 137L205.61 138.028L196.203 152L175.601 186L105 303z"/>
<path style="fill:#2ca0ec; stroke:none;" d="M82.3333 138.667L82.6667 139.333L82.3333 138.667z"/>
<path style="fill:#98bddb; stroke:none;" d="M248 139L249 140L248 139z"/>
<path style="fill:#2f597e; stroke:none;" d="M151 140L152 141L151 140M190 140L191 141L190 140z"/>
<path style="fill:#98bddb; stroke:none;" d="M203 140L204 141L203 140z"/>
<path style="fill:#2f597e; stroke:none;" d="M149 141L150 142L149 141z"/>
<path style="fill:#2ca0ec; stroke:none;" d="M82 142L82 152L83 152L82 142z"/>
<path style="fill:#98bddb; stroke:none;" d="M146 143L147 144L146 143M245 144L246 145L245 144M200 145L201 146L200 145z"/>
<path style="fill:#2f597e; stroke:none;" d="M244 146L245 147L244 146z"/>
<path style="fill:#98bddb; stroke:none;" d="M185 148L186 149L185 148z"/>
<path style="fill:#2f597e; stroke:none;" d="M252 154L253 155L256 150L258 150L259 153L260 153L258 149L252 154z"/>
<path style="fill:#98bddb; stroke:none;" d="M139 150L140 151L139 150z"/>
<path style="fill:#2ca0ec; stroke:none;" d="M256 150C250.77 159.826 235.774 175.891 235.499 187C235.338 193.524 243.584 202.634 246.95 208C257.774 225.258 268.242 242.733 279.05 260C281.946 264.627 287.684 278.81 293.21 280.183C296.489 280.998 300.386 277.756 303 276.201C311.513 271.135 316.982 268.669 317 258C317.038 235.172 301.753 218.726 289.692 200C279.059 183.491 267.524 167.172 258 150L256 150z"/>
<path style="fill:#2f597e; stroke:none;" d="M241 151L242 152L241 151M137 153L138 154L137 153M182 153L183 154L182 153M195 153L196 154L195 153M260 154L261 155L260 154M261 155L262 156L261 155z"/>
<path style="fill:#98bddb; stroke:none;" d="M180 156L181 157L180 156M238 156L239 157L238 156z"/>
<path style="fill:#2f597e; stroke:none;" d="M251 156L251 158L253 156L251 156M262 157L263 158L262 157z"/>
<path style="fill:#98bddb; stroke:none;" d="M192 158L193 159L192 158z"/>
<path style="fill:#2f597e; stroke:none;" d="M263.333 158.667L263.667 159.333L263.333 158.667M264 160L265 161L264 160z"/>
<path style="fill:#98bddb; stroke:none;" d="M235 161L236 162L235 161z"/>
<path style="fill:#2f597e; stroke:none;" d="M249 161L250 162L249 161M265.333 161.667L265.667 162.333L265.333 161.667M248.333 162.667L248.667 163.333L248.333 162.667z"/>
<path style="fill:#98bddb; stroke:none;" d="M189 163L190 164L189 163z"/>
<path style="fill:#2f597e; stroke:none;" d="M234 163L235 164L234 163M266 163L267 164L266 163z"/>
<path style="fill:#98bddb; stroke:none;" d="M130 164L131 165L130 164M175 164L176 165L175 164z"/>
<path style="fill:#2f597e; stroke:none;" d="M247 164L248 165L247 164M267.333 164.667L267.667 165.333L267.333 164.667M246.333 165.667L246.667 166.333L246.333 165.667M268 166L269 167L268 166M128 167L129 168L128 167M245 167L244 170L245 167z"/>
<path style="fill:#98bddb; stroke:none;" d="M186 168L187 169L186 168z"/>
<path style="fill:#2f597e; stroke:none;" d="M231 168L232 169L231 168M269 168L270 169L269 168M172 169L173 170L172 169M126 170L127 171L126 170M270 170L271 171L270 170M243 171L244 172L243 171M271 171L272 174L273 174L274 171L271 171z"/>
<path style="fill:#98bddb; stroke:none;" d="M170 172L171 173L170 172z"/>
<path style="fill:#2f597e; stroke:none;" d="M242 172L240 175L242 172z"/>
<path style="fill:#98bddb; stroke:none;" d="M183 173L184 174L183 173M228 173L229 174L228 173z"/>
<path style="fill:#2f597e; stroke:none;" d="M273 174L274 175L273 174z"/>
<path style="fill:#98bddb; stroke:none;" d="M123 175L124 176L123 175z"/>
<path style="fill:#2f597e; stroke:none;" d="M274.333 175.667L274.667 176.333L274.333 175.667M240 176L241 177L240 176M167 177L168 178L167 177M275 177L276 178L275 177z"/>
<path style="fill:#98bddb; stroke:none;" d="M121 178L122 179L121 178M180 178L181 179L180 178M225 178L226 179L225 178z"/>
<path style="fill:#2f597e; stroke:none;" d="M238 178L238 180L240 178L238 178M276 179L277 180L276 179z"/>
<path style="fill:#98bddb; stroke:none;" d="M165 180L166 181L165 180z"/>
<path style="fill:#2f597e; stroke:none;" d="M224 180L225 181L224 180M277 180L278 181L277 180z"/>
<path style="fill:#98bddb; stroke:none;" d="M119 181L120 182L119 181z"/>
<path style="fill:#2f597e; stroke:none;" d="M237 181L238 182L237 181M278 182L279 183L278 182z"/>
<path style="fill:#98bddb; stroke:none;" d="M222 183L223 184L222 183z"/>
<path style="fill:#2f597e; stroke:none;" d="M236 183L237 184L236 183M117 184L118 185L117 184M235 184L236 185L235 184M162 185L163 186L162 185M221 185L222 186L221 185M234 185L234 189L235 189L234 185M280 185L281 186L280 185M175 186L176 187L175 186M281.333 186.667L281.667 187.333L281.333 186.667M115 187L116 188L115 187z"/>
<path style="fill:#98bddb; stroke:none;" d="M160 188L161 189L160 188z"/>
<path style="fill:#2f597e; stroke:none;" d="M282 188L283 189L282 188M235 189L236 190L235 189M283.333 189.667L283.667 190.333L283.333 189.667M218 190L219 191L218 190z"/>
<path style="fill:#98bddb; stroke:none;" d="M172 191L173 192L172 191z"/>
<path style="fill:#2f597e; stroke:none;" d="M236 191L237 192L236 191M284 191L285 192L284 191z"/>
<path style="fill:#98bddb; stroke:none;" d="M112 192L113 193L112 192z"/>
<path style="fill:#2f597e; stroke:none;" d="M237.333 192.667L237.667 193.333L237.333 192.667M157 193L158 194L157 193M285 193L286 194L285 193M238 194L240 197L238 194M286 194L287 195L286 194z"/>
<path style="fill:#98bddb; stroke:none;" d="M110 195L111 196L110 195M215 195L216 196L215 195z"/>
<path style="fill:#2f597e; stroke:none;" d="M287.333 195.667L287.667 196.333L287.333 195.667z"/>
<path style="fill:#98bddb; stroke:none;" d="M155 196L156 197L155 196M169 196L170 197L169 196z"/>
<path style="fill:#2f597e; stroke:none;" d="M240 197L241 198L240 197M288.333 197.667L288.667 198.333L288.333 197.667M108 198L109 199L108 198M241 199L243 202L241 199M289 199L290 200L289 199z"/>
<path style="fill:#98bddb; stroke:none;" d="M212 200L213 201L212 200z"/>
<path style="fill:#2f597e; stroke:none;" d="M290.333 200.667L290.667 201.333L290.333 200.667M106 201L107 202L106 201M152 201L153 202L152 201z"/>
<path style="fill:#98bddb; stroke:none;" d="M166 201L167 202L166 201z"/>
<path style="fill:#2ca0ec; stroke:none;" d="M226 201L208.424 231L201.777 244L212.333 263L242 310C255.421 307.412 270.672 295.495 282 288L247.808 234L226 201z"/>
<path style="fill:#2f597e; stroke:none;" d="M225 202L226 203L225 202M243.333 202.667L243.667 203.333L243.333 202.667M291 202L292 203L291 202M224 203L225 204L224 203M228 203L229 204L228 203M292 203L294 206L292 203z"/>
<path style="fill:#98bddb; stroke:none;" d="M150 204L151 205L150 204z"/>
<path style="fill:#2f597e; stroke:none;" d="M229 204L230 205L229 204M244 204L245 205L244 204M223 205L222 208L223 205M245 205L246 206L245 205z"/>
<path style="fill:#98bddb; stroke:none;" d="M103 206L104 207L103 206M163 206L164 207L163 206z"/>
<path style="fill:#2f597e; stroke:none;" d="M230 206L231 207L230 206M294.333 206.667L294.667 207.333L294.333 206.667M208 207L209 208L208 207M231.333 207.667L231.667 208.333L231.333 207.667M246 207L247 208L246 207M221 208L222 209L221 208M247 208L248 209L247 208M295 208L296 209L295 208z"/>
<path style="fill:#98bddb; stroke:none;" d="M101 209L102 210L101 209z"/>
<path style="fill:#2f597e; stroke:none;" d="M147 209L148 210L147 209M232 209L233 210L232 209M233.333 210.667L233.667 211.333L233.333 210.667M248 210L249 211L248 210M296 210L297 211L296 210M297 211L298 214L299 214L299 211L297 211z"/>
<path style="fill:#98bddb; stroke:none;" d="M99 212L100 213L99 212M145 212L146 213L145 212M205 212L206 213L205 212z"/>
<path style="fill:#2f597e; stroke:none;" d="M219 212L220 213L219 212M234 212L235 213L234 212M249 212L250 213L249 212M218.333 213.667L218.667 214.333L218.333 213.667M250.333 213.667L250.667 214.333L250.333 213.667M235 214L236 215L235 214M299.333 214.667L299.667 215.333L299.333 214.667M97 215L98 216L97 215M217 215L218 216L217 215M236.333 215.667L236.667 216.333L236.333 215.667M251 215L252 216L251 215z"/>
<path style="fill:#98bddb; stroke:none;" d="M157 216L158 217L157 216z"/>
<path style="fill:#2f597e; stroke:none;" d="M252 216L253 217L252 216M300 216L301 217L300 216M142 217L143 218L142 217z"/>
<path style="fill:#98bddb; stroke:none;" d="M202 217L203 218L202 217z"/>
<path style="fill:#2f597e; stroke:none;" d="M216 217L217 218L216 217M237 217L238 218L237 217M95 218L96 219L95 218M253 218L254 219L253 218M301 218L302 219L301 218M155 219L156 220L155 219M214 219L214 221L216 219L214 219M238 219L240 223L241 223L238 219M302 219L303 220L302 219z"/>
<path style="fill:#98bddb; stroke:none;" d="M140 220L141 221L140 220z"/>
<path style="fill:#2f597e; stroke:none;" d="M254 220L255 221L254 220M303.333 220.667L303.667 221.333L303.333 220.667z"/>
<path style="fill:#98bddb; stroke:none;" d="M154 221L155 222L154 221z"/>
<path style="fill:#2f597e; stroke:none;" d="M213.333 221.667L213.667 222.333L213.333 221.667M255 221L256 222L255 221z"/>
<path style="fill:#98bddb; stroke:none;" d="M199 222L200 223L199 222z"/>
<path style="fill:#2f597e; stroke:none;" d="M304 222L305 223L304 222z"/>
<path style="fill:#98bddb; stroke:none;" d="M92 223L93 224L92 223z"/>
<path style="fill:#2f597e; stroke:none;" d="M241 223L242 224L241 223M256 223L257 224L256 223z"/>
<path style="fill:#98bddb; stroke:none;" d="M152 224L153 225L152 224z"/>
<path style="fill:#2f597e; stroke:none;" d="M198 224L199 225L198 224M212 224L213 225L212 224M305 224L306 225L305 224z"/>
<path style="fill:#98bddb; stroke:none;" d="M137 225L138 226L137 225z"/>
<path style="fill:#2f597e; stroke:none;" d="M211 225L212 226L211 225M242 225L243 226L242 225M257 225L257 227L259 227L257 225z"/>
<path style="fill:#98bddb; stroke:none;" d="M90 226L91 227L90 226z"/>
<path style="fill:#2f597e; stroke:none;" d="M306 226L307 227L306 226M210 227L211 228L210 227M243 227L244 228L243 227M307 227L308 228L307 227z"/>
<path style="fill:#98bddb; stroke:none;" d="M135 228L136 229L135 228z"/>
<path style="fill:#2f597e; stroke:none;" d="M209 228L208 231L209 228M244 228L245 229L244 228M259 228L260 229L259 228M308 228L311 231L308 228M88 229L89 230L88 229z"/>
<path style="fill:#98bddb; stroke:none;" d="M149 229L150 230L149 229M195 229L196 230L195 229z"/>
<path style="fill:#2f597e; stroke:none;" d="M245.333 229.667L245.667 230.333L245.333 229.667M260.333 229.667L260.667 230.333L260.333 229.667M134 230L135 231L134 230M246 231L247 232L246 231M261 231L263 234L261 231M86 232L87 233L86 232M207 232L208 233L207 232M310 232L312 234L312 232L310 232z"/>
<path style="fill:#98bddb; stroke:none;" d="M132 233L133 234L132 233z"/>
<path style="fill:#2f597e; stroke:none;" d="M247 233L248 234L247 233z"/>
<path style="fill:#98bddb; stroke:none;" d="M85 234L86 235L85 234M146 234L147 235L146 234M192 234L193 235L192 234z"/>
<path style="fill:#2f597e; stroke:none;" d="M206 234L207 235L206 234M248.333 234.667L248.667 235.333L248.333 234.667M263.333 234.667L263.667 235.333L263.333 234.667M204 235L204 238L206 235L204 235M312 235L313 236L312 235M249 236L250 237L249 236M264 236L264 238L266 238L264 236M313 236L314 237L313 236M250.333 237.667L250.667 238.333L250.333 237.667M314.333 237.667L314.667 238.333L314.333 237.667z"/>
<path style="fill:#98bddb; stroke:none;" d="M143 239L144 240L143 239M189 239L190 240L189 239z"/>
<path style="fill:#2f597e; stroke:none;" d="M203 239L204 240L203 239M251 239L252 240L251 239M266.333 239.667L266.667 240.333L266.333 239.667M315 239L316 240L315 239M202 240L201 243L202 240M252.333 240.667L252.667 241.333L252.333 240.667M316.333 240.667L316.667 241.333L316.333 240.667z"/>
<path style="fill:#98bddb; stroke:none;" d="M127 241L128 242L127 241z"/>
<path style="fill:#2f597e; stroke:none;" d="M188 241L189 242L188 241M267 241L268 242L267 241M253 242L254 243L253 242M268.333 242.667L268.667 243.333L268.333 242.667M254.333 243.667L254.667 244.333L254.333 243.667z"/>
<path style="fill:#98bddb; stroke:none;" d="M125 244L126 245L125 244M140 244L141 245L140 244M186 244L187 245L186 244z"/>
<path style="fill:#2f597e; stroke:none;" d="M269 244L270 245L269 244M255.333 245.667L255.667 246.333L255.333 245.667M124 246L125 247L124 246z"/>
<path style="fill:#98bddb; stroke:none;" d="M185 246L186 247L185 246z"/>
<path style="fill:#2f597e; stroke:none;" d="M201 246L203 249L201 246M270 246L272 249L270 246M256 247L257 248L256 247M257.333 248.667L257.667 249.333L257.333 248.667z"/>
<path style="fill:#98bddb; stroke:none;" d="M122 249L123 250L122 249z"/>
<path style="fill:#2f597e; stroke:none;" d="M203 249L204 250L203 249M272 249L274 252L272 249M204 250L205 251L204 250z"/>
<path style="fill:#98bddb; stroke:none;" d="M182 251L183 252L182 251z"/>
<path style="fill:#2f597e; stroke:none;" d="M135 252L136 253L135 252M205 252L206 253L205 252M259 252L260 253L259 252M274 252L275 253L274 252M206 253L207 254L206 253M260 253L261 254L260 253M119 254L120 255L119 254z"/>
<path style="fill:#98bddb; stroke:none;" d="M134 254L135 255L134 254z"/>
<path style="fill:#2f597e; stroke:none;" d="M275 254L279 260L275 254M207 255L208 256L207 255M261 255L262 256L261 255z"/>
<path style="fill:#98bddb; stroke:none;" d="M179 256L180 257L179 256M117 257L118 258L117 257z"/>
<path style="fill:#2f597e; stroke:none;" d="M132 257L133 258L132 257M208 257L209 258L208 257M262 257L263 258L262 257M209.333 258.667L209.667 259.333L209.333 258.667M263 258L264 259L263 258M210 260L211 261L210 260M264 260L266 262L266 260L264 260M279 260L280 261L279 260z"/>
<path style="fill:#98bddb; stroke:none;" d="M176 261L177 262L176 261z"/>
<path style="fill:#2f597e; stroke:none;" d="M211 261L212 262L211 261M114 262L115 263L114 262z"/>
<path style="fill:#98bddb; stroke:none;" d="M129 262L130 263L129 262z"/>
<path style="fill:#2f597e; stroke:none;" d="M280 262L281 263L280 262M175 263L176 264L175 263M212 263L213 264L212 263M266 263L267 264L266 263M281 263L282 267L283 267L281 263M213.333 264.667L213.667 265.333L213.333 264.667M267 264L268 265L267 264z"/>
<path style="fill:#98bddb; stroke:none;" d="M112 265L113 266L112 265z"/>
<path style="fill:#2f597e; stroke:none;" d="M268 265L269 269L270 269L268 265M214 266L216 269L214 266z"/>
<path style="fill:#98bddb; stroke:none;" d="M126 267L127 268L126 267z"/>
<path style="fill:#2f597e; stroke:none;" d="M283 267L284 268L283 267M172 268L173 269L172 268M284 268L285 269L284 268z"/>
<path style="fill:#2ca0ec; stroke:none;" d="M335 268L336 269L335 268z"/>
<path style="fill:#2f597e; stroke:none;" d="M216 269L217 270L216 269M270 269L271 270L270 269M335 269L336 270L335 269M109 270L110 271L109 270M285 270L286 271L285 270M217 271L218 272L217 271M271 271L272 272L271 271M286.333 271.667L286.667 272.333L286.333 271.667z"/>
<path style="fill:#98bddb; stroke:none;" d="M123 272L124 273L123 272z"/>
<path style="fill:#2f597e; stroke:none;" d="M218.333 272.667L218.667 273.333L218.333 272.667z"/>
<path style="fill:#98bddb; stroke:none;" d="M107 273L108 274L107 273M169 273L170 274L169 273z"/>
<path style="fill:#2f597e; stroke:none;" d="M287.333 273.667L287.667 274.333L287.333 273.667M219 274L220 275L219 274M273 274L275 276L275 274L273 274M333 274L334 275L333 274M220 275L221 279L222 279L220 275M288 275L290 278L288 275M275.333 276.667L275.667 277.333L275.333 276.667M332 276L333 277L332 276z"/>
<path style="fill:#98bddb; stroke:none;" d="M120 277L121 278L120 277z"/>
<path style="fill:#2f597e; stroke:none;" d="M104 278L105 279L104 278z"/>
<path style="fill:#98bddb; stroke:none;" d="M166 278L167 279L166 278z"/>
<path style="fill:#2f597e; stroke:none;" d="M276.333 278.667L276.667 279.333L276.333 278.667M290 278L291 279L290 278M222 279L223 280L222 279M330 279L331 280L330 279M118 280L119 281L118 280M165 280L166 281L165 280M223 280L224 281L223 280M277 280L278 281L277 280M291 280L291 283L293 282L293 281L291 280M68 281L69 282L68 281z"/>
<path style="fill:#98bddb; stroke:none;" d="M102 281L103 282L102 281z"/>
<path style="fill:#2f597e; stroke:none;" d="M224.333 281.667L224.667 282.333L224.333 281.667M278.333 281.667L278.667 282.333L278.333 281.667z"/>
<path style="fill:#98bddb; stroke:none;" d="M70 282L71 283L70 282M117 282L118 283L117 282z"/>
<path style="fill:#2f597e; stroke:none;" d="M225 283L226 284L225 283M279 283L280 284L279 283M280.333 284.667L280.667 285.333L280.333 284.667M325 284L326 285L325 284z"/>
<path style="fill:#98bddb; stroke:none;" d="M75 285L76 286L75 285z"/>
<path style="fill:#2f597e; stroke:none;" d="M115 285L116 286L115 285M162 285L163 286L162 285M226 285L227 286L226 285M286 285L287 286L286 285M99 286L100 287L99 286M227.333 286.667L227.667 287.333L227.333 286.667M281 286L283 288L283 286L281 286z"/>
<path style="fill:#98bddb; stroke:none;" d="M114 287L115 288L114 287z"/>
<path style="fill:#2f597e; stroke:none;" d="M320 287L321 288L320 287M228 288L229 289L228 288z"/>
<path style="fill:#98bddb; stroke:none;" d="M82 289L83 290L82 289M97 289L98 290L97 289z"/>
<path style="fill:#2f597e; stroke:none;" d="M229.333 289.667L229.667 290.333L229.333 289.667M112 290L113 291L112 290z"/>
<path style="fill:#98bddb; stroke:none;" d="M159 290L160 291L159 290z"/>
<path style="fill:#2f597e; stroke:none;" d="M230 291L231 292L230 291M313 291L314 292L313 291M87 292L88 293L87 292z"/>
<path style="fill:#98bddb; stroke:none;" d="M89 293L90 294L89 293z"/>
<path style="fill:#2f597e; stroke:none;" d="M231 293L232 294L231 293z"/>
<path style="fill:#98bddb; stroke:none;" d="M94 294L95 295L94 294z"/>
<path style="fill:#2f597e; stroke:none;" d="M232 294L233 295L232 294M308 294L309 295L308 294z"/>
<path style="fill:#98bddb; stroke:none;" d="M109 295L110 296L109 295M156 295L157 296L156 295z"/>
<path style="fill:#2f597e; stroke:none;" d="M233 296L234 297L233 296M155 297L156 298L155 297M234.333 297.667L234.667 298.333L234.333 297.667M301 298L302 299L301 298M235 299L236 300L235 299z"/>
<path style="fill:#98bddb; stroke:none;" d="M106 300L107 301L106 300M153 300L154 301L153 300z"/>
<path style="fill:#2f597e; stroke:none;" d="M236 301L237 302L236 301M152 302L153 303L152 302M237 302L238 303L237 302z"/>
<path style="fill:#2ca0ec; stroke:none;" d="M294 302L295 303L294 302z"/>
<path style="fill:#2f597e; stroke:none;" d="M106 303L107 304L106 303z"/>
<path style="fill:#98bddb; stroke:none;" d="M108 304L109 305L108 304z"/>
<path style="fill:#2f597e; stroke:none;" d="M238 304L239 305L238 304M239 305L240 306L239 305M289 305L290 306L289 305M151 307L152 308L151 307M240 307L240 309L242 309L240 307z"/>
<path style="fill:#98bddb; stroke:none;" d="M115 308L116 309L115 308z"/>
<path style="fill:#2f597e; stroke:none;" d="M282 309L283 310L282 309M120 311L121 312L120 311M241 311L242 312L241 311z"/>
<path style="fill:#98bddb; stroke:none;" d="M122 312L123 313L122 312z"/>
<path style="fill:#2ca0ec; stroke:none;" d="M275 313L276 314L275 313M236 314L237 315L236 314z"/>
<path style="fill:#98bddb; stroke:none;" d="M127 315L128 316L127 315z"/>
<path style="fill:#2f597e; stroke:none;" d="M165 315L166 316L165 315M234 315L235 316L234 315z"/>
<path style="fill:#98bddb; stroke:none;" d="M129 316L130 317L129 316z"/>
<path style="fill:#2f597e; stroke:none;" d="M270 316L271 317L270 316M229 318L230 319L229 318M134 319L135 320L134 319M172 319L173 320L172 319M263 320L264 321L263 320M222 322L223 323L222 322M141 323L142 324L141 323M179 323L180 324L179 323z"/>
<path style="fill:#2ca0ec; stroke:none;" d="M256 324L257 325L256 324M217 325L218 326L217 325z"/>
<path style="fill:#2f597e; stroke:none;" d="M146 326L147 327L146 326z"/>
<path style="fill:#2ca0ec; stroke:none;" d="M184 326L185 327L184 326z"/>
<path style="fill:#2f597e; stroke:none;" d="M214 326L215 327L214 326M186 327L187 328L186 327M251 327L252 328L251 327M210 329L211 330L210 329z"/>
<path style="fill:#2ca0ec; stroke:none;" d="M191 330L192 331L191 330z"/>
<path style="fill:#2f597e; stroke:none;" d="M244 331L245 332L244 331M203 333L204 334L203 333M160 334L161 335L160 334M239 334L240 335L239 334z"/>
<path style="fill:#2ca0ec; stroke:none;" d="M162 335L163 336L162 335z"/>
<path style="fill:#2f597e; stroke:none;" d="M237 335L238 336L237 335M167 338L168 339L167 338M232 338L233 339L232 338M174 342L175 343L174 342M225 342L226 343L225 342M179 345L180 346L179 345M220 345L221 346L220 345z"/>
<path style="fill:#2ca0ec; stroke:none;" d="M181 346L182 347L181 346M218 346L219 347L218 346z"/>
<path style="fill:#2f597e; stroke:none;" d="M213 349L214 350L213 349M188 350L189 351L188 350M209 351L210 352L209 351M194 352L195 353L194 352M206 352L207 353L206 352z"/>
</svg>
