<svg id="Layer_1" data-name="Layer 1" xmlns="http://www.w3.org/2000/svg" xmlns:xlink="http://www.w3.org/1999/xlink" viewBox="0 0 735.26 679.85"><defs><style>.cls-1{fill:none;}.cls-2{clip-path:url(#clip-path);}.cls-3{fill:#12521b;}.cls-4{fill:#124f1a;}.cls-5{fill:#114c19;}.cls-6{clip-path:url(#clip-path-2);}.cls-7{clip-path:url(#clip-path-3);}.cls-8{fill:#14591e;}.cls-9{clip-path:url(#clip-path-4);}.cls-10{clip-path:url(#clip-path-5);}.cls-11{fill:#13551c;}.cls-12{fill:#14581d;}.cls-13{fill:#145b1e;}.cls-14{fill:#155d1f;}.cls-15{fill:#124e1a;}.cls-16{fill:#114919;}.cls-17{clip-path:url(#clip-path-6);}.cls-18{clip-path:url(#clip-path-7);}.cls-19{clip-path:url(#clip-path-8);}.cls-20{clip-path:url(#clip-path-9);}.cls-21{fill:url(#linear-gradient);}</style><clipPath id="clip-path"><path class="cls-1" d="M357.5,535.11V508.59a165.88,165.88,0,0,0,20.58-1.28,168.8,168.8,0,0,0,39.55-9.92A172.61,172.61,0,0,0,436.19,489l12.33,23.45a199.81,199.81,0,0,1-21.46,9.7,197.51,197.51,0,0,1-22.48,7.11,193.9,193.9,0,0,1-23.27,4.36A190.5,190.5,0,0,1,357.5,535.11Z"/></clipPath><clipPath id="clip-path-2"><path class="cls-1" d="M519.54,449l-21.95-14.85q2.88-4.28,5.52-8.74t5-9.15q2.39-4.66,4.51-9.55c1.41-3.25,2.73-6.58,4-10l24.93,9q-2.12,5.88-4.57,11.53c-1.63,3.76-3.38,7.44-5.22,11.05s-3.79,7.13-5.82,10.58S521.76,445.72,519.54,449Z"/></clipPath><clipPath id="clip-path-3"><rect class="cls-1" x="497.59" y="396.76" width="43.97" height="52.25"/></clipPath><clipPath id="clip-path-4"><path class="cls-1" d="M541.55,405.74l-24.93-9q2.57-7.14,4.46-14.31t3.14-14.36q1.24-7.18,1.85-14.36t.61-14.3H553.2q0,8.25-.71,16.54t-2.14,16.61q-1.44,8.31-3.64,16.61T541.55,405.74Z"/></clipPath><clipPath id="clip-path-5"><path class="cls-1" d="M161.82,339.41h26.52a167.74,167.74,0,0,0,2,25.7,169.85,169.85,0,0,0,44.19,90.44,167.63,167.63,0,0,0,41,31.84,170.48,170.48,0,0,0,24.62,11.13q7.13,2.57,14.3,4.46t14.36,3.14Q336,507.37,343.2,508t14.31.61v26.52q-8.25,0-16.55-.71t-16.62-2.15q-8.31-1.44-16.61-3.63t-16.54-5.16a197.4,197.4,0,0,1-28.47-12.88,193.67,193.67,0,0,1-47.48-36.83,196,196,0,0,1-53.41-134.34Z"/></clipPath><clipPath id="clip-path-6"><path class="cls-1" d="M192,235.27l22.43,14.11q-2.38,3.8-4.59,7.72t-4.23,8q-2,4.08-3.82,8.32t-3.4,8.64q-2.57,7.13-4.46,14.29t-3.14,14.36q-1.25,7.18-1.85,14.36c-.41,4.78-.62,9.56-.62,14.31H161.82c0-5.5.24-11,.72-16.55s1.18-11.08,2.15-16.62,2.16-11.08,3.63-16.6,3.17-11.05,5.15-16.54q1.84-5.09,3.93-10t4.43-9.63q2.32-4.72,4.88-9.28T192,235.27Z"/></clipPath><clipPath id="clip-path-7"><path class="cls-1" d="M357.52,143.74v26.51a168.69,168.69,0,0,0-44.27,5.94,169.71,169.71,0,0,0-40.86,17.11l-13.34-22.91A198.85,198.85,0,0,1,282,159a195.75,195.75,0,0,1,49.56-13.48A193.1,193.1,0,0,1,357.52,143.74Z"/></clipPath><clipPath id="clip-path-8"><rect class="cls-1" x="259.05" y="143.74" width="98.47" height="49.56"/></clipPath><clipPath id="clip-path-9"><path class="cls-1" d="M553.2,339.43H526.68A168.94,168.94,0,0,0,414.85,180.32q-7.11-2.56-14.29-4.46t-14.36-3.14q-7.18-1.25-14.37-1.86t-14.31-.61V143.74c5.5,0,11,.23,16.56.7s11.07,1.19,16.62,2.15,11.08,2.17,16.61,3.63,11,3.18,16.53,5.16a198.65,198.65,0,0,1,28.48,12.89,193.37,193.37,0,0,1,47.47,36.83A196,196,0,0,1,553.2,339.43Z"/></clipPath><linearGradient id="linear-gradient" x1="181.45" y1="163.36" x2="533.51" y2="515.42" gradientUnits="userSpaceOnUse"><stop offset="0" stop-color="#21b831"/><stop offset="1" stop-color="#219231"/></linearGradient></defs><g class="cls-2"><path class="cls-3" d="M357.5,535.11V508.59c1.68,0,3.36,0,5-.07s3.35-.13,5-.23,3.34-.23,5-.38,3.32-.33,5-.53l3.13,26.32c-1.91.23-3.83.44-5.75.61s-3.85.33-5.78.44-3.87.21-5.81.27-3.88.09-5.83.09"/><path class="cls-4" d="M380.67,533.7l-3.13-26.32c2.56-.31,5.1-.68,7.64-1.11s5.06-.92,7.57-1.46,5-1.14,7.48-1.8,4.94-1.36,7.38-2.13l7.85,25.31c-2.82.88-5.67,1.71-8.54,2.46s-5.75,1.45-8.65,2.08-5.82,1.19-8.75,1.69-5.89.92-8.85,1.28"/><path class="cls-5" d="M415.46,526.19l-7.85-25.31q3.7-1.15,7.34-2.48t7.22-2.82q3.58-1.49,7.08-3.13t6.94-3.45l12.33,23.45c-2.64,1.39-5.32,2.72-8,4s-5.44,2.48-8.19,3.63-5.55,2.23-8.35,3.25-5.64,2-8.5,2.88"/></g><g class="cls-6"><g class="cls-7"><path class="cls-5" d="M519.54,449l-21.95-14.85q2.88-4.28,5.52-8.74t5-9.15q2.39-4.66,4.51-9.55c1.41-3.25,2.73-6.58,4-10l24.93,9q-2.12,5.88-4.57,11.53c-1.63,3.76-3.38,7.44-5.22,11.05s-3.79,7.13-5.82,10.58-4.18,6.82-6.4,10.11"/></g></g><polygon class="cls-8" points="326.87 379.57 331.02 374.13 497.59 434.16 519.54 449.01 326.87 379.57"/><g class="cls-9"><path class="cls-5" d="M541.55,405.74l-24.93-9q2.57-7.14,4.46-14.31t3.14-14.36q1.24-7.18,1.85-14.36t.61-14.3H553.2q0,8.25-.71,16.54t-2.14,16.61q-1.44,8.31-3.64,16.61t-5.16,16.55"/></g><g class="cls-10"><path class="cls-11" d="M161.82,339.41h26.52v.87c0,.28,0,.57,0,.86s0,.57,0,.86,0,.57,0,.86l-26.51.54c0-.33,0-.67,0-1s0-.66,0-1,0-.67,0-1,0-.67,0-1"/><path class="cls-12" d="M161.87,343.4l26.51-.54c0,2.29.14,4.57.28,6.85s.32,4.55.56,6.81.51,4.52.83,6.77.69,4.48,1.1,6.71l-26.08,4.79c-.47-2.58-.9-5.17-1.27-7.76s-.69-5.21-1-7.83-.49-5.24-.65-7.88-.27-5.28-.32-7.92"/><path class="cls-13" d="M165.07,374.79,191.15,370q.79,4.29,1.81,8.54c.67,2.83,1.42,5.63,2.24,8.42s1.71,5.54,2.67,8.28,2,5.45,3.08,8.13l-24.54,10q-1.91-4.65-3.57-9.4t-3.08-9.58q-1.42-4.83-2.59-9.74c-.79-3.27-1.48-6.57-2.1-9.88"/><path class="cls-14" d="M176.41,413.39l24.54-10q1.74,4.25,3.7,8.41c1.31,2.76,2.7,5.5,4.16,8.19s3,5.35,4.59,8,3.28,5.18,5,7.71a170.11,170.11,0,0,0,22.27,26.13,171.86,171.86,0,0,0,13.15,11.33,168.29,168.29,0,0,0,14.43,10l-14,22.52a194.34,194.34,0,0,1-45.58-39.19,197.6,197.6,0,0,1-12.08-15.73q-3-4.38-5.81-8.92t-5.31-9.21q-2.53-4.68-4.81-9.48t-4.28-9.73"/><path class="cls-13" d="M254.28,505.65l14-22.52c2.43,1.5,4.9,2.95,7.42,4.33s5.08,2.72,7.7,4,5.27,2.48,8,3.62,5.45,2.23,8.24,3.25l-9.08,24.9c-3.23-1.17-6.4-2.43-9.53-3.75s-6.2-2.73-9.22-4.19-6-3-8.91-4.61-5.77-3.28-8.58-5"/><path class="cls-12" d="M290.52,523.22l9.08-24.9.14.05.15.05.14.05.14,0c2.17.79,4.34,1.52,6.52,2.21s4.35,1.32,6.53,1.92,4.37,1.14,6.55,1.65,4.38,1,6.56,1.37l-4.88,26.06q-3.79-.72-7.59-1.59t-7.58-1.91c-2.52-.68-5-1.43-7.56-2.22s-5-1.64-7.54-2.55l-.16-.06-.17-.06-.16-.06-.17-.06"/><path class="cls-11" d="M321.45,531.73l4.88-26.06q3.17.6,6.33,1.07c2.1.32,4.21.59,6.32.83s4.21.42,6.31.58,4.2.26,6.3.34l-.93,26.5q-3.63-.13-7.29-.4c-2.43-.17-4.86-.4-7.3-.67s-4.87-.59-7.31-.95-4.88-.78-7.31-1.24"/><path class="cls-3" d="M350.66,535l.93-26.5,1.48,0,1.48,0,1.48,0h1.48v26.52h-1.7l-1.71,0-1.72,0-1.71,0"/></g><polygon class="cls-15" points="349.17 314.76 350.3 318.1 331.02 374.13 326.87 379.57 349.17 314.76"/><polygon class="cls-16" points="360.74 368.47 360.3 364.54 380.26 309.14 383.83 304.39 360.74 368.47"/><g class="cls-17"><path class="cls-5" d="M192,235.27l22.43,14.11c-.71,1.12-1.41,2.26-2.09,3.4s-1.36,2.3-2,3.46-1.3,2.34-1.94,3.52-1.26,2.37-1.87,3.57l-23.67-11.92q1.06-2.08,2.17-4.14c.73-1.37,1.48-2.72,2.25-4.07s1.54-2.68,2.33-4,1.59-2.63,2.41-3.93"/><path class="cls-4" d="M182.86,251.41l23.67,11.92q-1.14,2.25-2.22,4.55t-2.1,4.64q-1,2.34-2,4.74t-1.83,4.83c-.29.79-.57,1.59-.84,2.38s-.54,1.6-.8,2.39-.52,1.6-.77,2.39-.49,1.6-.72,2.4l-25.43-7.49c.27-.92.55-1.85.84-2.77s.58-1.84.88-2.77.61-1.84.93-2.76.64-1.84,1-2.76q1-2.82,2.12-5.59t2.28-5.48q1.17-2.7,2.42-5.36c.84-1.77,1.69-3.53,2.57-5.26"/><path class="cls-3" d="M169.85,284.16l25.43,7.49q-1,3.23-1.77,6.45c-.55,2.15-1,4.31-1.51,6.46s-.87,4.32-1.24,6.47-.69,4.32-1,6.47l-26.29-3.43c.33-2.5.71-5,1.14-7.49s.9-5,1.43-7.48,1.11-5,1.74-7.48,1.31-5,2-7.46"/><path class="cls-11" d="M163.49,314.07l26.29,3.43q-.36,2.75-.63,5.49t-.45,5.49c-.12,1.82-.21,3.65-.27,5.47s-.09,3.65-.09,5.46H161.82c0-2.1,0-4.21.11-6.32s.17-4.22.31-6.33.31-4.23.52-6.34.45-4.23.73-6.35"/></g><polygon class="cls-16" points="383.83 304.39 380.26 309.14 214.44 249.38 192.02 235.26 383.83 304.39"/><g class="cls-18"><g class="cls-19"><path class="cls-5" d="M357.52,143.74v26.51a168.69,168.69,0,0,0-44.27,5.94,169.71,169.71,0,0,0-40.86,17.11l-13.34-22.91A198.85,198.85,0,0,1,282,159a195.75,195.75,0,0,1,49.56-13.48,193.1,193.1,0,0,1,25.94-1.74"/></g></g><g class="cls-20"><path class="cls-5" d="M553.2,339.43H526.68A168.94,168.94,0,0,0,414.85,180.32q-7.11-2.56-14.29-4.46t-14.36-3.14q-7.18-1.25-14.37-1.86t-14.31-.61V143.74c5.5,0,11,.23,16.56.7s11.07,1.19,16.62,2.15,11.08,2.17,16.61,3.63,11,3.18,16.53,5.16a198.65,198.65,0,0,1,28.48,12.89,193.37,193.37,0,0,1,47.47,36.83A196,196,0,0,1,553.2,339.43"/></g><path class="cls-21" d="M562.28,197.83a249.33,249.33,0,0,1,44.24,141.6q0,10.14-.86,20.33t-2.55,20.36q-1.71,10.17-4.28,20.31t-6,20.17l-1.08,3.21L590.55,427a253.18,253.18,0,0,1-14.44,31.45A248.63,248.63,0,0,1,512,534.58l-3.39,2.63c-1.1.85-2.17,1.66-3.23,2.46s-2.09,1.56-3.13,2.31-2.07,1.49-3.11,2.21A250.38,250.38,0,0,1,432,577a248.62,248.62,0,0,1-74.49,11.46q-10.56,0-21.16-.92t-21.19-2.74q-10.57-1.85-21.1-4.62t-20.93-6.53a249,249,0,0,1-164.6-234.17q0-10.54.9-21.14t2.74-21.18Q114,286.54,116.78,276t6.54-21a249.33,249.33,0,0,1,16.37-36.17,247.76,247.76,0,0,1,76.22-84.19A250,250,0,0,1,319.6,93.35a247,247,0,0,1,37.85-2.92q10.55,0,21.15.9t21.2,2.74q10.6,1.83,21.14,4.62t21,6.54a247.81,247.81,0,0,1,120.37,92.6Zm-9.08,141.6a195.38,195.38,0,0,0-9-58.52,196.32,196.32,0,0,0-44.41-75.81,193.37,193.37,0,0,0-47.47-36.83,198.65,198.65,0,0,0-28.48-12.89q-8.23-3-16.53-5.16t-16.61-3.63q-8.32-1.44-16.62-2.15c-5.53-.47-11.06-.7-16.56-.7a193.1,193.1,0,0,0-25.94,1.74A195.75,195.75,0,0,0,282,159a198.85,198.85,0,0,0-23,11.43L476.3,248.68l-28.39,78.81-87.18,41,23.1-64.08L192,235.27q-2.76,4.38-5.31,8.93t-4.88,9.28q-2.34,4.72-4.43,9.63t-3.93,10q-3,8.23-5.15,16.54t-3.63,16.6q-1.45,8.31-2.15,16.62c-.48,5.53-.71,11.05-.72,16.55a194.86,194.86,0,0,0,2.29,29.73,196.56,196.56,0,0,0,51.12,104.61,193.67,193.67,0,0,0,47.48,36.83,197.4,197.4,0,0,0,28.47,12.88q8.24,3,16.54,5.16t16.61,3.63q8.32,1.44,16.62,2.15t16.55.71a190.5,190.5,0,0,0,23.81-1.49,193.9,193.9,0,0,0,23.27-4.36,197.51,197.51,0,0,0,22.48-7.11,199.81,199.81,0,0,0,21.46-9.7L234,435.14l15.42-42.83L262,355.75l87.16-41-22.3,64.81L519.54,449q3.33-4.93,6.4-10.11c2-3.45,4-7,5.82-10.58s3.59-7.29,5.22-11.05,3.16-7.61,4.57-11.53q3-8.25,5.16-16.55t3.64-16.61q1.44-8.31,2.14-16.61t.71-16.54"/></svg>