<svg width="67" height="67" viewBox="0 0 67 67" fill="none" xmlns="http://www.w3.org/2000/svg">
<path d="M28.56 26.05L40.11 20.62L45.55 32.17L33.99 37.61L37.53 27.8L28.56 26.05Z" fill="#32A15C"/>
<path d="M60.7 15C57.6663 10.6097 53.6131 7.02058 48.8879 4.54043C44.1627 2.06028 38.9065 0.763065 33.57 0.76001C24.8179 0.76001 16.4242 4.23678 10.2355 10.4255C4.04678 16.6142 0.570007 25.0079 0.570007 33.76C0.570007 42.5121 4.04678 50.9058 10.2355 57.0945C16.4242 63.2832 24.8179 66.76 33.57 66.76C40.2734 66.7574 46.817 64.7134 52.33 60.9C52.88 60.52 53.42 60.11 53.95 59.69V59.6C58.6489 55.8831 62.2419 50.9519 64.34 45.34L64.49 44.91L64.64 44.49C65.834 41.035 66.4457 37.4055 66.45 33.75C66.4739 27.0623 64.469 20.5245 60.7 15ZM59.5 33.77C59.5076 36.7578 59.0002 39.7246 58 42.54C57.2432 44.5709 56.2353 46.4992 55 48.28L21 36L17.2 46.44L45.63 56.69C41.9116 58.6502 37.7734 59.6796 33.57 59.69C30.5733 59.6859 27.5997 59.1649 24.78 58.15C19.7649 56.3345 15.4294 53.0206 12.3615 48.6576C9.29363 44.2946 7.6418 39.0936 7.63001 33.76C7.63617 30.7723 8.16061 27.8084 9.18001 25C9.8171 23.2512 10.6384 21.5751 11.63 20L45.54 32.17L49.31 21.73L20.52 11.36C24.469 9.06302 28.9516 7.84238 33.52 7.82001C36.5172 7.82932 39.4904 8.35361 42.31 9.37001C47.3359 11.1708 51.6837 14.4786 54.7601 18.8418C57.8366 23.205 59.4918 28.4112 59.5 33.75V33.77Z" fill="#41A75B"/>
<path d="M32.46 30.49L20.91 35.92L17.39 46.15L28.94 40.72L32.46 30.49Z" fill="#32A15C"/>
</svg>
